<svg width="55" height="50" viewBox="0 0 55 50" fill="none" xmlns="http://www.w3.org/2000/svg">
<path d="M28 49.9778C26.3875 48.3897 24.565 46.7378 22.6375 44.9803H22.6125C15.825 38.8168 8.13255 31.8425 4.73505 23.4857C3.61885 20.8251 3.02732 17.9305 3.00003 14.9955C2.99257 10.9684 4.44698 7.10781 7.03457 4.28642C9.62216 1.46502 13.1245 -0.0790744 16.75 0.00312141C19.7016 0.00829879 22.5896 0.955642 25.07 2.73229C26.1599 3.51792 27.1461 4.46823 28 5.55586C28.8587 4.4725 29.8451 3.52275 30.9325 2.73229C33.4118 0.955291 36.2991 0.00789274 39.25 0.00312141C42.8755 -0.0790744 46.3778 1.46502 48.9654 4.28642C51.553 7.10781 53.0074 10.9684 53 14.9955C52.9745 17.9352 52.3829 20.8348 51.2649 23.4995C47.8675 31.8564 40.1775 38.8279 33.39 44.9803L33.365 45.0025C31.435 46.7489 29.615 48.4008 28.0025 50L28 49.9778ZM16.75 5.55586C14.4213 5.5235 12.1752 6.51328 10.5 8.31002C8.88601 10.0707 7.98393 12.483 7.99983 14.9955C8.02836 17.1347 8.46461 19.243 9.28004 21.1813C10.8838 24.787 13.0478 28.0502 15.6725 30.8208C18.15 33.5972 21 36.2847 23.465 38.5447C24.1475 39.1694 24.8425 39.7996 25.5375 40.4299L25.975 40.8269C26.6425 41.4321 27.3325 42.0596 28 42.6759L28.0325 42.6426L28.0475 42.6287H28.0625L28.085 42.6093H28.0975H28.11L28.155 42.5677L28.2575 42.476L28.275 42.4594L28.3025 42.4372H28.3175L28.34 42.415L30 40.9018L30.435 40.5048C31.1375 39.869 31.8325 39.2388 32.515 38.6141C34.98 36.3541 37.8325 33.6694 40.31 30.8791C42.935 28.1099 45.0991 24.8475 46.7025 21.2424C47.5326 19.2872 47.9751 17.1569 48 14.9955C48.0104 12.4908 47.1088 10.0877 45.5 8.33223C43.828 6.52737 41.5815 5.52944 39.25 5.55586C36.4048 5.52901 33.6848 6.85345 31.775 9.19568L28 14.0266L24.225 9.19568C22.3152 6.85345 19.5952 5.52901 16.75 5.55586Z" fill="#2E3A59"/>
<line y1="26.5" x2="18" y2="26.5" stroke="#2E3A59" stroke-width="5"/>
<line x1="37" y1="25.5" x2="55" y2="25.5" stroke="#2E3A59" stroke-width="5"/>
<path d="M16 27.0478L26 19.0478" stroke="#2E3A59" stroke-width="5"/>
<line x1="22.9085" y1="19.3851" x2="33.9085" y2="32.3851" stroke="#2E3A59" stroke-width="5"/>
<line x1="31.2322" y1="32.2322" x2="39.2322" y2="24.2322" stroke="#2E3A59" stroke-width="5"/>
</svg>
