<svg width="50" height="50" viewBox="0 0 50 50" fill="none" xmlns="http://www.w3.org/2000/svg">
<path d="M44.4444 50H5.55556C2.48731 50 0 47.7614 0 45V10C0 7.23858 2.48731 5 5.55556 5H11.1111V0H16.6667V5H33.3333V0H38.8889V5H44.4444C47.5127 5 50 7.23858 50 10V45C50 47.7614 47.5127 50 44.4444 50ZM5.55556 20V45H44.4444V20H5.55556ZM5.55556 10V15H44.4444V10H5.55556ZM38.8889 40H33.3333V35H38.8889V40ZM27.7778 40H22.2222V35H27.7778V40ZM16.6667 40H11.1111V35H16.6667V40ZM38.8889 30H33.3333V25H38.8889V30ZM27.7778 30H22.2222V25H27.7778V30ZM16.6667 30H11.1111V25H16.6667V30Z" fill="#502C4C"/>
</svg>
