<svg width="19" height="17" viewBox="0 0 19 17" fill="none" xmlns="http://www.w3.org/2000/svg">
<path d="M2 16.365H0C0 13.0513 2.68629 10.365 6 10.365C9.31371 10.365 12 13.0513 12 16.365H10C10 14.1559 8.20914 12.365 6 12.365C3.79086 12.365 2 14.1559 2 16.365ZM16.364 12.728L14.95 11.314C16.2629 10.0012 17.0005 8.22064 17.0005 6.364C17.0005 4.50736 16.2629 2.72678 14.95 1.414L16.364 0C19.8781 3.51461 19.8781 9.21239 16.364 12.727V12.728ZM13.535 9.9L12.121 8.484C13.2908 7.31273 13.2908 5.41527 12.121 4.244L13.535 2.827C15.4876 4.77961 15.4876 7.94539 13.535 9.898V9.9ZM6 9.364C3.79086 9.364 2 7.57314 2 5.364C2 3.15486 3.79086 1.364 6 1.364C8.20914 1.364 10 3.15486 10 5.364C10 6.42487 9.57857 7.44228 8.82843 8.19243C8.07828 8.94257 7.06087 9.364 6 9.364ZM6 3.364C4.9074 3.36511 4.01789 4.24285 4.00223 5.33534C3.98658 6.42783 4.85057 7.3307 5.94269 7.36312C7.03481 7.39553 7.95083 6.5455 8 5.454V5.854V5.364C8 4.25943 7.10457 3.364 6 3.364Z" fill="#502C4C"/>
</svg>
